<svg xmlns="http://www.w3.org/2000/svg" viewBox="0 0 903.88 903.88"><defs><style>.cls-1{fill:#303030;}</style></defs><title>Design Sprint</title><g id="Layer_2" data-name="Layer 2"><g id="Compound_Path" data-name="Compound Path"><path class="cls-1" d="M901,724.18,724.18,901A10,10,0,0,1,710,901L439.46,630.38a10,10,0,1,1,14.14-14.14l263.51,263.5L879.74,717.11l-21.88-21.89L841,712a10,10,0,1,1-14.1-14.18l16.84-16.75-29.13-29.14L779.5,686.89a10,10,0,1,1-14.12-14.16l35-34.93L771.2,608.57l-16.89,16.79a10,10,0,0,1-14.1-14.19l16.85-16.75-29.14-29.14-35.08,35a10,10,0,0,1-14.12-14.16l35-34.93L684.62,522l-16.89,16.79a10,10,0,1,1-14.1-14.18l16.84-16.75L641.33,478.7l-35.07,34.95a10,10,0,0,1-14.12-14.17l35.05-34.92-11-11a10,10,0,1,1,14.14-14.14l15.84,15.84a9.91,9.91,0,0,1,2.56,1.86,10,10,0,0,1,1.84,2.54l38.89,38.89a10,10,0,0,1,4.4,4.4l38.89,38.89a9.89,9.89,0,0,1,4.4,4.4l38.9,38.9a10.13,10.13,0,0,1,2.57,1.86,9.89,9.89,0,0,1,1.82,2.54l39,39a10,10,0,0,1,4.4,4.4l38.89,38.89a10,10,0,0,1,4.4,4.4L901,710A10,10,0,0,1,901,724.18ZM280.58,467.35a10,10,0,0,0,7.07-17.07L24.14,186.78,186.78,24.14l21.91,21.92L191.84,62.8A10,10,0,1,0,205.94,77L222.83,60.2,252,89.36l-35.05,34.92a10,10,0,1,0,14.12,14.17l35.07-34.95,29.14,29.14-16.84,16.75a10,10,0,1,0,14.1,14.18l16.89-16.79,29.16,29.16-35.06,34.93A10,10,0,0,0,317.64,225l35.08-35,29.14,29.14L365,236a10,10,0,0,0,14.1,14.19L396,233.37l29.16,29.16-35.05,34.92a10,10,0,1,0,14.12,14.17l35.07-34.95,11,11a10,10,0,1,0,14.14-14.14l-15.83-15.84a9.8,9.8,0,0,0-1.84-2.54,9.91,9.91,0,0,0-2.56-1.86L405.3,214.38a10.17,10.17,0,0,0-1.83-2.54A10,10,0,0,0,400.9,210L362,171.08a9.89,9.89,0,0,0-4.4-4.4l-38.89-38.89a10,10,0,0,0-4.4-4.4L275.42,84.5A9.8,9.8,0,0,0,273.58,82,9.91,9.91,0,0,0,271,80.1L232.13,41.21a10.36,10.36,0,0,0-1.83-2.54,10.2,10.2,0,0,0-2.57-1.86L193.85,2.93a10,10,0,0,0-14.14,0L2.93,179.71a10,10,0,0,0,0,14.14L273.51,464.42A9.93,9.93,0,0,0,280.58,467.35ZM226.33,796.79l-.49.2-.27.1L63.64,853a10.18,10.18,0,0,1-3.26.54,10,10,0,0,1-9.45-13.26l55.86-161.93a1.42,1.42,0,0,1,.08-.18c.07-.2.15-.4.23-.59a3.78,3.78,0,0,1,.17-.35c.08-.17.17-.34.26-.51s.15-.27.24-.4.17-.27.27-.41.21-.29.32-.43a3.92,3.92,0,0,1,.27-.33c.12-.15.26-.3.39-.44l.15-.17L710.92,72.76A85,85,0,0,1,831.13,193L229.38,794.71l-.15.14-.45.41-.3.24-.47.35-.34.22-.48.29-.41.22ZM771,67.86a64.47,64.47,0,0,0-38.34,12.51l90.83,90.84A65,65,0,0,0,771,67.86ZM130.39,681.57l91.92,91.93,587.6-587.61L718,94ZM76.53,827.35l127.4-44L120.48,700Z"/></g></g></svg>