<svg xmlns="http://www.w3.org/2000/svg" viewBox="0 0 990 660"><defs><style>.cls-1{fill:#303030;}</style></defs><title>Shifting Perspectives</title><g id="Layer_2" data-name="Layer 2"><g id="Compound_Path" data-name="Compound Path"><path class="cls-1" d="M893.35,96.65A330.36,330.36,0,0,0,494.92,44.12a330,330,0,1,0,0,571.76A330.07,330.07,0,0,0,893.35,96.65ZM330,640A310,310,0,0,1,110.8,110.8,310.14,310.14,0,0,1,475.57,56.25a333.68,333.68,0,0,0-48.92,40.4,330,330,0,0,0,0,466.7,333.68,333.68,0,0,0,48.92,40.4A309.88,309.88,0,0,1,330,640Zm549.2-90.8A310,310,0,1,1,440.8,110.8,310,310,0,1,1,879.2,549.2ZM298,330a10,10,0,0,1-4.49,8.34l-69.44,69.44a10,10,0,0,1-14.14-14.14L263.57,340H86a10,10,0,0,1,0-20H263.57l-53.64-53.64a10,10,0,0,1,14.14-14.14l69.44,69.44A10,10,0,0,1,298,330Z"/></g></g></svg>