<svg xmlns="http://www.w3.org/2000/svg" viewBox="0 0 920 871"><defs><style>.cls-1{fill:#303030;}</style></defs><title>Solution Design</title><g id="Layer_2" data-name="Layer 2"><g id="Compound_Path" data-name="Compound Path"><path id="_Stroke_" data-name="&lt;Stroke&gt;" class="cls-1" d="M691,871H350.5a10,10,0,0,1-10-10V753.29a10,10,0,0,1,14.17-9.09,58.5,58.5,0,1,0,0-106.4,10,10,0,0,1-14.17-9.09V520.5a10,10,0,0,1,10-10h94.2a78.5,78.5,0,1,1,152.6,0H691a10,10,0,0,1,10,10V861A10,10,0,0,1,691,871ZM360.5,851H681V530.5H583.29a10,10,0,0,1-9.09-14.17,58.5,58.5,0,1,0-106.4,0,10,10,0,0,1-9.09,14.17H360.5v84.2a78.5,78.5,0,1,1,0,152.6ZM910,360.5H802.29a10,10,0,0,1-9.09-14.17,58.5,58.5,0,1,0-106.4,0,10,10,0,0,1-9.09,14.17H569.5a10,10,0,0,1-10-10V256.3a78.5,78.5,0,1,1,0-152.6V10a10,10,0,0,1,10-10H910a10,10,0,0,1,10,10V350.5A10,10,0,0,1,910,360.5Zm-93.7-20H900V20H579.5v97.71a10,10,0,0,1-14.17,9.09A58,58,0,0,0,541,121.5a58.5,58.5,0,0,0,0,117,58,58,0,0,0,24.33-5.3,10,10,0,0,1,14.17,9.09V340.5h84.2a78.5,78.5,0,1,1,152.6,0ZM180,626.5a78.56,78.56,0,0,1-76.54-96H10a10,10,0,0,1-10-10V180a10,10,0,0,1,10-10H350.5a10,10,0,0,1,10,10V287.71a10,10,0,0,1-14.17,9.09A58,58,0,0,0,322,291.5a58.5,58.5,0,0,0,0,117,58,58,0,0,0,24.33-5.3,10,10,0,0,1,14.17,9.09V520.5a10,10,0,0,1-10,10h-94a78.56,78.56,0,0,1-76.54,96ZM20,510.5h97.26a10,10,0,0,1,9.16,14A57.92,57.92,0,0,0,121.5,548a58.5,58.5,0,0,0,117,0,57.92,57.92,0,0,0-4.92-23.48,10,10,0,0,1,9.16-14H340.5V426.3a78.5,78.5,0,1,1,0-152.6V190H20ZM350.5,871H10A10,10,0,0,1,0,861V520.5a10,10,0,0,1,10-10H117.26a10,10,0,0,1,9.16,14A57.92,57.92,0,0,0,121.5,548a58.5,58.5,0,0,0,117,0,57.92,57.92,0,0,0-4.92-23.48,10,10,0,0,1,9.16-14H350.5a10,10,0,0,1,10,10v94.2a78.5,78.5,0,1,1,0,152.6V861A10,10,0,0,1,350.5,871ZM20,851H340.5V753.29a10,10,0,0,1,14.17-9.09,58.5,58.5,0,1,0,0-106.4,10,10,0,0,1-14.17-9.09V530.5h-84a78.5,78.5,0,1,1-153.08,0H20Z"/></g></g></svg>