<svg xmlns="http://www.w3.org/2000/svg" viewBox="0 0 545 813.5"><defs><style>.cls-1{fill:#303030;}</style></defs><title>Strategic Innovation</title><g id="Layer_2" data-name="Layer 2"><g id="Compound_Path" data-name="Compound Path"><path id="_Stroke_" data-name="&lt;Stroke&gt;" class="cls-1" d="M383.75,693.5h-225a10,10,0,0,1,0-20h225a10,10,0,0,1,0,20Zm11,30a10,10,0,0,0-10-10h-225a10,10,0,0,0,0,20h225A10,10,0,0,0,394.75,723.5Zm0,40a10,10,0,0,0-10-10h-225a10,10,0,0,0,0,20h225A10,10,0,0,0,394.75,763.5Zm-62.5,40a10,10,0,0,0-10-10h-100a10,10,0,0,0,0,20h100A10,10,0,0,0,332.25,803.5ZM196.19,332.94l34.74-.06a10,10,0,0,0,9.54-7.08l4.05-13.22a117.48,117.48,0,0,0,25.66-10.23l15.27,8.29a10,10,0,0,0,11.86-1.73l24.52-24.61a10,10,0,0,0,1.74-11.75L316,258.22A117.29,117.29,0,0,0,328.28,229L341.53,225a10,10,0,0,0,7.16-9.61l-.06-34.73a10,10,0,0,0-7.08-9.55l-13.22-4a117.2,117.2,0,0,0-12.61-29.84l7.62-14a10,10,0,0,0-1.73-11.86L297,86.93a10,10,0,0,0-11.74-1.74l-15.41,8.18a117.6,117.6,0,0,0-25.17-10L240.8,70.1a10,10,0,0,0-9.59-7.16h0L196.45,63a10,10,0,0,0-9.54,7.07l-4,13.22a117.67,117.67,0,0,0-25.68,10.24l-15.3-8.3A10,10,0,0,0,130,87l-24.52,24.57a10,10,0,0,0-1.75,11.76l7.65,14.37A117.73,117.73,0,0,0,99.1,166.91l-13.25,3.92a10,10,0,0,0-7.16,9.61l.06,34.74a10,10,0,0,0,7.07,9.54l13.22,4a117.66,117.66,0,0,0,12.59,29.81l-7.6,14a10,10,0,0,0,1.73,11.85l24.56,24.49a10,10,0,0,0,11.76,1.75l15.39-8.19a117.83,117.83,0,0,0,25.19,10l3.92,13.25a10,10,0,0,0,9.59,7.16Zm-43.25-50.69-13.73,7.3-14-14L132,263a10,10,0,0,0-.48-10.32,97.86,97.86,0,0,1-14.33-33.87,10,10,0,0,0-6.85-7.46l-11.61-3.55,0-19.87,11.59-3.44a10,10,0,0,0,6.94-7.47,97.87,97.87,0,0,1,14.08-33.41,10,10,0,0,0,.48-10.21l-6.89-12.94,14-14,13.64,7.4a10,10,0,0,0,10-.25,98.08,98.08,0,0,1,30.34-12.07,10,10,0,0,0,7.46-6.85L203.87,83l19.87,0,3.44,11.6a10,10,0,0,0,7.47,6.93,97.88,97.88,0,0,1,29.91,11.87,10,10,0,0,0,9.85.27l13.75-7.31,14,14-6.84,12.59a10,10,0,0,0,.47,10.33,97.56,97.56,0,0,1,14.35,33.9,10,10,0,0,0,6.86,7.47l11.61,3.55,0,19.87-11.59,3.43a10,10,0,0,0-6.93,7.48,98,98,0,0,1-14.08,33.4,10,10,0,0,0-.49,10.21l6.87,12.91-14,14.07-13.6-7.38a10,10,0,0,0-10,.24,97.84,97.84,0,0,1-30.34,12.07,10,10,0,0,0-7.46,6.86l-3.55,11.61-19.87,0-3.44-11.59a10,10,0,0,0-7.47-6.93,98.12,98.12,0,0,1-29.93-11.88,10,10,0,0,0-9.86-.27Zm117.48-84.31a56.73,56.73,0,1,0-56.73,56.73A56.8,56.8,0,0,0,270.42,197.94Zm-20,0a36.73,36.73,0,1,1-36.73-36.73A36.78,36.78,0,0,1,250.42,197.94ZM287.49,539.5l25.78,0a10,10,0,0,0,9.54-7.07l2.59-8.47a89.72,89.72,0,0,0,17-6.77l10.12,5.5a10,10,0,0,0,11.85-1.73l18.2-18.27a10,10,0,0,0,1.75-11.75l-5-9.39a89.78,89.78,0,0,0,8.29-19.68l8.48-2.51a10,10,0,0,0,7.16-9.61l-.05-25.78a10,10,0,0,0-7.07-9.55l-8.47-2.59a89.79,89.79,0,0,0-8.5-20.13l5-9.13a10,10,0,0,0-1.74-11.87L364.16,352.5a10,10,0,0,0-11.75-1.74l-10.23,5.43a89.86,89.86,0,0,0-16.61-6.61l-2.51-8.48a10,10,0,0,0-9.59-7.16h0l-25.79,0a10,10,0,0,0-9.54,7.08l-2.59,8.47a89.68,89.68,0,0,0-17,6.76L248.4,350.8a10,10,0,0,0-11.84,1.72l-18.2,18.24a10,10,0,0,0-1.75,11.76l5,9.41a89.85,89.85,0,0,0-8.29,19.69l-8.48,2.51a10,10,0,0,0-7.16,9.61l0,25.78a10,10,0,0,0,7.08,9.55l8.47,2.58a89.65,89.65,0,0,0,8.48,20.12l-4.95,9.13a10,10,0,0,0,1.73,11.85l18.23,18.18a10,10,0,0,0,11.76,1.75l10.22-5.44a89,89,0,0,0,16.62,6.62l2.51,8.48a10,10,0,0,0,9.59,7.16ZM254.17,497l-8.51,4.53L238,493.87l4.16-7.66a10,10,0,0,0-.47-10.32,70,70,0,0,1-10.26-24.25,10,10,0,0,0-6.85-7.46l-6.81-2.08,0-10.92,6.77-2a10,10,0,0,0,6.93-7.48,69.89,69.89,0,0,1,10.08-23.9,10,10,0,0,0,.48-10.22l-4.22-7.93,7.7-7.71,8.43,4.57a10,10,0,0,0,10-.25,70.18,70.18,0,0,1,21.72-8.63,10,10,0,0,0,7.46-6.85l2.08-6.81L306,354l2,6.77a10,10,0,0,0,7.47,6.93,70.08,70.08,0,0,1,21.4,8.49,10,10,0,0,0,9.86.27l8.53-4.53,7.7,7.66-4.16,7.66a10,10,0,0,0,.47,10.33,70.1,70.1,0,0,1,10.27,24.26,10,10,0,0,0,6.85,7.47l6.81,2.08,0,10.92-6.77,2a10,10,0,0,0-6.94,7.47,69.87,69.87,0,0,1-10.07,23.9,10,10,0,0,0-.49,10.21l4.21,7.92-7.71,7.73-8.4-4.56a10,10,0,0,0-10,.24,70.2,70.2,0,0,1-21.72,8.64,10,10,0,0,0-7.46,6.85l-2.08,6.81-10.92,0-2-6.77a10,10,0,0,0-7.48-6.94A70.19,70.19,0,0,1,264,497.29a10,10,0,0,0-9.86-.27Zm91-60.3a44.69,44.69,0,1,0-44.68,44.68A44.73,44.73,0,0,0,345.15,436.72Zm-20,0A24.69,24.69,0,1,1,300.47,412,24.71,24.71,0,0,1,325.15,436.72ZM391.37,643.5a250.84,250.84,0,0,1,73-177.55c.3-.24.58-.49.86-.76A272.5,272.5,0,0,0,79.81,79.81,272.51,272.51,0,0,0,78,463.34,10.56,10.56,0,0,0,79.29,465a250.79,250.79,0,0,1,74,178.54,10,10,0,0,0,20,0,270.66,270.66,0,0,0-78-190.84A10.56,10.56,0,0,0,94,451,252.49,252.49,0,1,1,451,94a252.48,252.48,0,0,1,1,356.09c-.29.24-.58.49-.85.76A270.71,270.71,0,0,0,371.37,643.5a10,10,0,0,0,20,0Z"/></g></g></svg>