<svg xmlns="http://www.w3.org/2000/svg" viewBox="0 0 50 50"><defs><style>.cls-1{fill:#303030;}</style></defs><title>instagram</title><g id="Layer_2" data-name="Layer 2"><g id="Layer_2-2" data-name="Layer 2"><path class="cls-1" d="M34.37,0H15.62A15.63,15.63,0,0,0,0,15.63V34.38A15.63,15.63,0,0,0,15.62,50H34.37A15.63,15.63,0,0,0,50,34.38V15.63A15.63,15.63,0,0,0,34.37,0ZM45.31,34.38A10.94,10.94,0,0,1,34.37,45.31H15.62A10.94,10.94,0,0,1,4.69,34.38V15.63A10.94,10.94,0,0,1,15.62,4.69H34.37A10.94,10.94,0,0,1,45.31,15.63ZM25,12.5A12.5,12.5,0,1,0,37.5,25,12.5,12.5,0,0,0,25,12.5Zm0,20.31A7.81,7.81,0,1,1,32.81,25,7.81,7.81,0,0,1,25,32.81ZM38.44,9.9a1.67,1.67,0,0,1,0,3.33,1.67,1.67,0,1,1,0-3.33Z"/></g></g></svg>