<svg xmlns="http://www.w3.org/2000/svg" viewBox="0 0 50 47.78"><defs><style>.cls-1{fill:#303030;}</style></defs><title>linkedin</title><g id="Layer_2" data-name="Layer 2"><g id="Layer_2-2" data-name="Layer 2"><path class="cls-1" d="M50,29.29V47.78H39.28V30.53c0-4.33-1.55-7.29-5.43-7.29a5.84,5.84,0,0,0-5.49,3.92A7.17,7.17,0,0,0,28,29.77v18H17.28s.14-29.21,0-32.24H28v4.57l-.07.1H28v-.1a10.65,10.65,0,0,1,9.66-5.33C44.71,14.78,50,19.39,50,29.29ZM6.07,0C2.4,0,0,2.41,0,5.57a5.55,5.55,0,0,0,5.92,5.57H6c3.73,0,6.06-2.48,6.06-5.57S9.73,0,6.07,0ZM.64,47.78H11.35V15.54H.64Z"/></g></g></svg>